<?xml version="1.0" standalone="no"?>
<!DOCTYPE svg PUBLIC "-//W3C//DTD SVG 20010904//EN"
 "http://www.w3.org/TR/2001/REC-SVG-20010904/DTD/svg10.dtd">
<svg version="1.0" xmlns="http://www.w3.org/2000/svg"
 width="650.000000pt" height="170.000000pt" viewBox="0 0 650.000000 170.000000"
 preserveAspectRatio="xMidYMid meet">

<g transform="translate(0.000000,170.000000) scale(0.100000,-0.100000)"
fill="#000000" stroke="none">
<path d="M6316 1690 c-82 -25 -121 -124 -76 -198 91 -149 312 -38 242 122 -28
62 -100 96 -166 76z"/>
<path d="M5840 840 l0 -810 75 0 75 0 0 810 0 810 -75 0 -75 0 0 -810z"/>
<path d="M275 1217 c-62 -21 -97 -42 -137 -84 -57 -58 -81 -124 -82 -214 0
-147 63 -225 278 -344 153 -85 180 -107 205 -159 64 -132 -37 -270 -199 -270
-74 0 -126 22 -202 85 l-47 39 -45 -52 -46 -52 38 -39 c83 -86 214 -133 339
-124 189 14 323 153 323 336 0 151 -68 238 -274 351 -65 36 -139 83 -164 105
-90 79 -96 170 -15 247 75 71 188 63 301 -22 29 -22 56 -40 60 -40 4 0 28 21
52 46 l45 46 -45 39 c-25 22 -78 56 -118 76 -61 31 -85 37 -150 40 -46 2 -93
-2 -117 -10z"/>
<path d="M1415 1224 c-227 -48 -389 -188 -467 -404 -20 -56 -23 -84 -23 -205
0 -166 17 -230 94 -347 125 -191 310 -280 553 -265 211 13 371 109 486 291 17
27 29 53 26 58 -3 5 -31 21 -63 37 l-57 29 -29 -45 c-116 -184 -333 -271 -540
-218 -167 44 -297 201 -320 388 l-7 57 531 0 531 0 0 35 c0 67 -31 190 -65
260 -81 166 -229 283 -403 320 -62 14 -201 18 -247 9z m262 -165 c74 -25 145
-71 189 -122 38 -45 81 -129 90 -177 l7 -30 -438 0 -437 0 6 28 c14 58 72 159
118 205 53 53 150 104 225 117 66 12 172 3 240 -21z"/>
<path d="M2865 1216 c-230 -53 -398 -198 -472 -408 -34 -96 -42 -243 -19 -342
47 -197 206 -366 410 -433 71 -23 98 -26 216 -27 156 -1 223 13 340 72 73 36
210 154 210 181 0 6 -25 27 -56 47 l-55 35 -64 -60 c-104 -96 -220 -141 -368
-141 -232 0 -425 146 -482 365 -67 257 110 524 380 574 177 33 346 -14 471
-131 l63 -60 56 32 c30 17 55 35 55 39 0 12 -54 83 -86 113 -49 45 -145 97
-229 124 -99 32 -275 42 -370 20z"/>
<path d="M5514 1216 c-57 -18 -123 -66 -178 -128 l-46 -53 0 83 0 82 -75 0
-75 0 0 -585 0 -585 74 0 73 0 6 353 c6 386 12 438 66 544 31 62 77 110 133
139 24 13 48 15 99 11 l67 -6 35 57 c33 52 35 58 19 70 -42 32 -128 40 -198
18z"/>
<path d="M3830 856 c0 -190 5 -379 11 -420 37 -269 192 -415 459 -433 227 -15
418 82 496 251 50 110 56 163 61 569 l5 377 -80 0 -81 0 -3 -402 c-3 -398 -3
-404 -27 -455 -29 -66 -111 -143 -176 -169 -38 -15 -75 -19 -160 -19 -106 0
-112 1 -173 34 -76 41 -124 94 -154 170 -22 54 -23 70 -26 449 l-3 392 -75 0
-74 0 0 -344z"/>
<path d="M6280 615 l0 -585 75 0 75 0 0 585 0 585 -75 0 -75 0 0 -585z"/>
</g>
</svg>
